<?xml version="1.0" standalone="no"?>
<!DOCTYPE svg PUBLIC "-//W3C//DTD SVG 1.1//EN" "http://www.w3.org/Graphics/SVG/1.1/DTD/svg11.dtd">
<svg xmlns="http://www.w3.org/2000/svg">
<metadata>Generated by Fontastic.me</metadata>
<defs>
<font id="ndflx-feature-icon" horiz-adv-x="512">
<font-face font-family="ndflx-feature-icon" units-per-em="512" ascent="480" descent="-32"/>
<missing-glyph horiz-adv-x="512" />

<glyph glyph-name="assessment" unicode="&#97;" d="M176 469c-12 0-23-2-34-8l-64-33c-8-4-14-13-14-23 0-9 6-18 14-22l64-34c11-5 22-8 34-8l227 0c22 0 45 16 45 42l0 45c0 26-23 41-45 41z m-14-46c4 2 9 4 14 4l227 0c1 0 2-1 2-1l0-42c0 0-1 0-2 0l-227 0c-5 0-10 1-14 3l-35 18z m-34-103c-35 0-64-29-64-64l0-171c0-35 29-64 64-64l256 0c35 0 64 29 64 64l0 171c0 35-29 64-64 64z m-21-64c0 12 9 21 21 21l256 0c12 0 21-9 21-21l0-171c0-11-9-21-21-21l-256 0c-12 0-21 10-21 21z m42-43c0-11 10-21 22-21 11 0 21 10 21 21 0 12-10 22-21 22-12 0-22-10-22-22z m214 0c0 12-10 22-22 22l-106 0c-12 0-22-10-22-22 0-11 10-21 22-21l106 0c12 0 22 10 22 21z m-64-85c0 12-10 21-22 21l-42 0c-12 0-22-9-22-21 0-12 10-21 22-21l42 0c12 0 22 9 22 21z m-128-21c-12 0-22 9-22 21 0 12 10 21 22 21 11 0 21-9 21-21 0-12-10-21-21-21z"/>
<glyph glyph-name="board" unicode="&#98;" d="M149 427c-35 0-64-29-64-64l0-22c0-11 10-21 22-21 11 0 21 10 21 21l0 22c0 11 10 21 21 21l214 0c11 0 21-10 21-21l0-214c0-11-10-21-21-21l-214 0c-11 0-21 10-21 21l0 22c0 11-10 21-21 21-12 0-22-10-22-21l0-22c0-35 29-64 64-64l214 0c35 0 64 29 64 64l0 214c0 35-29 64-64 64z m125-95c-4 6-12 10-19 9-8 0-15-5-18-11l-48-96-22 34c-4 6-11 9-18 9l-64 0c-11 0-21-9-21-21 0-12 10-21 21-21l53 0 36-55c4-6 12-10 19-9 8 0 15 5 18 11l48 96 22-34c4-6 11-9 18-9l42 0c12 0 22 9 22 21 0 12-10 21-22 21l-31 0z"/>
<glyph glyph-name="chat" unicode="&#99;" d="M427 384l0-213c0-24-20-43-43-43l-192 0c-13 0-21 9-21 21 0 13 8 22 21 22l192 0 0 213-256 0 0-192c0-13-9-21-21-21-13 0-22 8-22 21l0 192c0 23 20 43 43 43l256 0c23 0 43-20 43-43z m-310-235c-17 0-32-15-32-32 0-17 15-32 32-32 17 0 32 15 32 32 0 17-15 32-32 32z"/>
<glyph glyph-name="collabolators" unicode="&#100;" d="M139 192c27 0 51 15 64 36 15-8 34-15 53-15 19 0 38 5 53 15 13-21 37-36 64-36 41 0 75 34 75 75 0 40-34 74-75 74-4 0-8 0-12 0-9 49-54 86-105 86-51 0-96-37-105-86-4 0-8 0-12 0-41 0-75-34-75-74 0-41 34-75 75-75z m222 105c4 2 8 2 12 2 17 0 32-15 32-32 0-17-15-32-32-32-15 0-27 10-30 23 7 11 13 24 18 39z m-105 87c36 0 64-28 64-64 0-36-28-64-64-64-17 0-32 6-43 17-12 11-21 28-21 47 0 36 28 64 64 64z m-117-85c4 0 8 0 12-2 5-15 9-28 18-39-3-13-15-23-30-23-17 0-32 15-32 32 0 17 15 32 32 32z m266-128l-30 0c-19 12-42 21-68 21l-104 0c-26 0-49-9-69-21l-27 0c-47 0-86-39-86-86 0-12 9-21 22-21l44 0c5-13 15-21 30-21l280 0c13 0 25 8 30 21l42 0c13 0 22 9 22 21 0 47-39 86-86 86z m-315-64l-22 0c7 10 17 17 28 21-2-6-4-15-6-21z m38-22c6 37 36 64 75 64l104 0c39 0 68-27 75-64z m294 22c-2 6-4 15-8 21 13-2 21-11 28-21z"/>
<glyph glyph-name="dataset" unicode="&#101;" d="M64 427c0 23 17 42 38 42l106 0c16 0 31-9 38-23l10-19 154 0c21 0 38-16 38-36l0-55c13-8 21-22 21-37l0-192c0-24-19-43-42-43l-342 0c-23 0-42 19-42 43l0 192c0 15 8 29 21 37z m43-22l0-64 298 0 0 43-192 0-15 31c-4 7-11 12-19 12l-51 0c-12 0-21-10-21-22z m-22-106l0-192 342 0 0 192z"/>
<glyph glyph-name="detection-file" unicode="&#102;" d="M448 405c0 24-19 43-43 43l-64 0c-11 0-21-10-21-21 0-12 10-22 21-22l64 0 0-64c0-11 10-21 22-21 11 0 21 10 21 21z m0-298c0-24-19-43-43-43l-64 0c-11 0-21 10-21 21 0 12 10 22 21 22l64 0 0 64c0 11 10 21 22 21 11 0 21-10 21-21z m-384 0c0-24 19-43 43-43l64 0c11 0 21 10 21 21 0 12-10 22-21 22l-64 0 0 64c0 11-10 21-22 21-11 0-21-10-21-21z m128 320c0 11-10 21-21 21l-64 0c-24 0-43-19-43-43l0-64c0-11 10-21 21-21 12 0 22 10 22 21l0 64 64 0c11 0 21 10 21 22z m64-64c12 0 21-10 21-22l0-97 28 27c8 8 22 8 30 0 8-8 8-22 0-30l-64-64c-8-8-22-8-30 0l-64 64c-8 8-8 22 0 30 8 8 22 8 30 0l28-27 0 97c0 12 9 22 21 22z"/>
<glyph glyph-name="dev" unicode="&#103;" d="M156 356c-9-8-9-21 0-30l48-49-48-49c-9-8-9-21 0-30 8-8 21-8 30 0l49 49c16 17 16 44 0 61l-49 48c-9 9-22 9-30 0z m121-164c-11 0-21-10-21-21 0-12 10-22 21-22l43 0c12 0 21 10 21 22 0 11-9 21-21 21z m-213 192c0 35 29 64 64 64l256 0c35 0 64-29 64-64l0-256c0-35-29-64-64-64l-256 0c-35 0-64 29-64 64z m64 21c-12 0-21-9-21-21l0-256c0-12 9-21 21-21l256 0c12 0 21 9 21 21l0 256c0 12-9 21-21 21z"/>
<glyph glyph-name="gis" unicode="&#104;" d="M256 277c36 0 66 28 66 64 0 37-30 64-66 64-36 0-66-27-66-64 0-36 30-64 66-64z m0 86c13 0 21-9 21-22 0-12-10-21-21-21-11 0-21 9-21 21 0 13 8 22 21 22z m-15-271c0 0 0 0 15 15 17-15 17-15 17-15-11-9-23-9-32 0z m205-26l-56 128c-6 11-19 19-32 19l7 0c8 13 15 26 21 39 13 25 24 53 24 77 0 87-67 162-154 162-87 0-154-75-154-162 0-24 11-52 24-77 6-13 13-26 21-39l7 0c-13 0-26-8-30-19l-56-128c-8-21 7-45 30-45l318 0c23 0 38 24 30 45z m-299 263c0 68 51 119 109 119 58 0 109-51 109-119 0-15-7-35-19-58-11-24-28-47-43-70-17-22-32-43-45-58-2-2-2-2-4-4-2 2-2 2-4 4-13 15-28 34-45 58-17 21-32 46-43 70-8 23-15 43-15 58z m-34-265l47 107 15 0c15-22 30-41 43-54 6-8 10-12 15-17 2-2 4-4 4-4l2-2 17 13 17-15 2 2c0 2 2 2 4 4 5 4 9 11 15 17 11 13 28 32 43 54l15 0 47-107-286 0z"/>
<glyph glyph-name="help" unicode="&#105;" d="M416 448c18 0 32-14 32-32l0-75c0-11-10-21-21-21-12 0-22 10-22 21l0 64-64 0c-11 0-21 10-21 22 0 11 10 21 21 21z m0-384c18 0 32 14 32 32l0 75c0 11-10 21-21 21-12 0-22-10-22-21l0-64-64 0c-11 0-21-10-21-22 0-11 10-21 21-21z m-320 0c-18 0-32 14-32 32l0 75c0 11 10 21 21 21 12 0 22-10 22-21l0-64 64 0c11 0 21-10 21-22 0-11-10-21-21-21z m75 384c11 0 21-10 21-21 0-12-10-22-21-22l-64 0 0-64c0-11-10-21-22-21-11 0-21 10-21 21l0 75c0 18 14 32 32 32z m62-231c1 0 1-1 2-1l32 0c1 0 2 1 3 1 0 1 1 2 1 3l0 7c0 5 1 10 4 13 3 4 8 8 15 13 6 5 11 9 15 13 4 4 8 9 11 15 3 7 4 14 4 23 0 12-3 22-8 31-5 9-12 15-22 20-9 5-20 8-33 8-12 0-24-3-34-8-10-5-17-12-23-22-5-9-8-19-8-31l0-3c0-1 0-2 1-3 1-1 1-1 2-1l33-2c2 0 3 2 3 4l0 5c0 6 2 12 7 16 5 4 11 6 19 6 7 0 13-2 17-6 4-4 7-9 7-15 0-6-2-11-6-16-3-4-9-9-16-14-9-7-15-13-20-19-5-6-7-14-7-24l0-10c0-1 0-2 1-3z m1-61c5-4 10-7 16-7 6 0 12 3 16 7 4 5 6 10 6 17 0 7-2 13-6 17-4 4-9 6-16 6-6 0-11-2-16-6-4-5-6-10-6-17 0-7 2-12 6-17z"/>
<glyph glyph-name="label" unicode="&#106;" d="M373 418l-136-13c-11 0-19-6-26-12l-166-167c-17-17-17-45 0-60l121-121c17-17 45-17 60 0l167 166c6 7 10 17 12 26l15 134c2 28-21 51-47 47z m-10-177l-167-166-121 121 166 167 134 15z m-167-75l75 75c8 9 21 9 30 0 8-8 8-21 0-30l-75-74c-8-9-21-9-30 0-8 6-8 21 0 29z m45 135c9-9 9-22 0-30l-75-75c-8-8-21-8-29 0-9 9-9 22 0 30l74 75c9 8 22 8 30 0z m60 0c-9 8-9 21 0 30 8 8 21 8 30 0 8-9 8-22 0-30-9-9-22-9-30 0z"/>
<glyph glyph-name="leaderboard" unicode="&#107;" d="M192 363c0-24 19-43 43-43l0-43 42 0 0 43c24 0 43 19 43 43l0 106-128 0z m36 62c7-3 13 4 15 10 2 15 24 15 26 0 2-6 8-13 15-10 15 2 21-20 8-26-6-4-8-11-6-17 6-13-11-26-21-15-5 4-13 4-20 0-10-11-27 2-21 15 4 6 0 15-6 17-11 8-5 30 10 26z m49-169l-42 0c-24 0-43-19-43-43l0-128c0-23 19-42 43-42l42 0c24 0 43 19 43 42l0 128c0 24-19 43-43 43z m0-171l-42 0 0 128 42 0z m-149 107l-43 0c-23 0-42-19-42-43l0-64c0-23 19-42 42-42l43 0c23 0 43 19 43 42l0 64c0 24-20 43-43 43z m0-107l-43 0 0 64 43 0z m299 128l-43 0c-23 0-43-19-43-42l0-86c0-23 20-42 43-42l43 0c23 0 42 19 42 42l0 86c0 23-19 42-42 42z m0-128l-43 0 0 86 43 0z m-299 363l43 0 0-43-22 0c-12 0-21 9-21 22z m235-43l-22 0 0 43 43 0 0-21c0-13-9-22-21-22z"/>
<glyph glyph-name="live" unicode="&#108;" d="M128 427c-24 0-43-19-43-43l0-21c0-12 10-22 22-22 11 0 21 10 21 22l0 21 256 0 0-256-21 0c-12 0-22-10-22-21 0-12 10-22 22-22l21 0c24 0 43 19 43 43l0 256c0 24-19 43-43 43z m-21-192c-12 0-22-10-22-22 0-11 10-21 22-21 47 0 85-38 85-85 0-12 10-22 21-22 12 0 22 10 22 22 0 70-58 128-128 128z m-22 64c0 11 10 21 22 21 117 0 213-96 213-213 0-12-10-22-21-22-12 0-22 10-22 22 0 94-76 170-170 170-12 0-22 10-22 22z m29-214c16 0 29 13 29 29 0 16-13 29-29 29-16 0-29-13-29-29 0-16 13-29 29-29z"/>
<glyph glyph-name="planogram" unicode="&#109;" d="M405 427l-298 0c-5 0-9 0-11-2-4-3-6-7-9-9 0-2-2-6-2-9 0 0 0-2 0-2l0-298c0-13 9-22 22-22 12 0 21 9 21 22l0 64 107 0 0-64c0-13 8-22 21-22 13 0 21 9 21 22l0 64 107 0 0-64c0-13 9-22 21-22 13 0 22 9 22 22l0 298c0 13-9 22-22 22z m-170-214l-107 0 0 64 107 0z m0 107l-107 0 0 64 107 0z m149-107l-107 0 0 64 107 0z m0 107l-107 0 0 64 107 0z"/>
<glyph glyph-name="pointing" unicode="&#110;" d="M384 363l-4 0c-9 25-32 42-60 42l-17 0c-11 13-28 22-47 22l0 10c0 30-23 54-53 54-30 0-54-24-54-54l0-117c-47 0-85-38-85-85l0-22c0-106 85-192 192-192 107 0 192 86 192 192l0 86c0 36-28 64-64 64z m21-150c0-83-66-149-149-149-83 0-149 66-149 149l0 22c0 23 19 42 42 42l0-64c0-12 9-21 22-21 12 0 21 9 21 21l0 224c0 7 4 11 11 11 6 0 10-4 10-11l0-117c0-13 9-21 22-21 12 0 21 8 21 21l0 64c13 0 21-9 21-21l0-64c0-13 9-22 22-22 12 0 21 9 21 22l0 64c13 0 21-9 21-22l0-42c0-13 9-22 22-22 12 0 21 9 21 22l0 21c13 0 21-9 21-21z"/>
<glyph glyph-name="profile" unicode="&#111;" d="M256 469c-59 0-107-47-107-106 0-59 48-107 107-107 59 0 107 48 107 107 0 59-48 106-107 106z m-64-106c0 35 29 64 64 64 35 0 64-29 64-64 0-36-29-64-64-64-35 0-64 28-64 64z m12-128c-66 0-119-53-119-119 0-17 14-31 31-31l280 0c17 0 31 14 31 31 0 66-53 119-119 119z m104-43c38 0 70-28 75-64l-254 0c5 36 37 64 75 64z"/>
<glyph glyph-name="project-summary" unicode="&#112;" d="M457 275l-77 34 77 34c17 9 17 30 0 39l-190 85c-7 2-15 2-22 0l-190-85c-17-9-17-30 0-39l77-34-77-34c-17-8-17-30 0-38l77-34-77-34c-17-9-17-30 0-39l190-85c7-2 15-2 22 0l190 85c17 9 17 30 0 39l-77 34 77 34c17 8 17 30 0 38z m-338 88l137 62 137-62-137-62z m274-214l-137-62-137 62 64 30 60-28c7-2 15-2 22 0l59 28z m-137 45l-137 62 64 30 60-28c7-2 15-2 22 0l59 28 64-30z"/>
<glyph glyph-name="report" unicode="&#113;" d="M363 341c0 12-10 22-22 22l-106 0c-12 0-22-10-22-22 0-11 10-21 22-21l106 0c12 0 22 10 22 21z m-22-64c12 0 22-9 22-21 0-12-10-21-22-21l-106 0c-12 0-22 9-22 21 0 12 10 21 22 21z m-42-106c0 11-10 21-22 21l-42 0c-12 0-22-10-22-21 0-12 10-22 22-22l42 0c12 0 22 10 22 22z m-128 149c-12 0-22 10-22 21 0 12 10 22 22 22 11 0 21-10 21-22 0-11-10-21-21-21z m-22-64c0-12 10-21 22-21 11 0 21 9 21 21 0 12-10 21-21 21-12 0-22-9-22-21z m22-107c-12 0-22 10-22 22 0 11 10 21 22 21 11 0 21-10 21-21 0-12-10-22-21-22z m-107 235c0 35 29 64 64 64l256 0c35 0 64-29 64-64l0-256c0-35-29-64-64-64l-256 0c-35 0-64 29-64 64z m64 21c-12 0-21-9-21-21l0-256c0-12 9-21 21-21l256 0c12 0 21 9 21 21l0 256c0 12-9 21-21 21z"/>
<glyph glyph-name="team" unicode="&#114;" d="M64 341c0 59 48 107 107 107 59 0 106-48 106-107 0-59-47-106-106-106-59 0-107 47-107 106z m107 64c-36 0-64-28-64-64 0-35 28-64 64-64 35 0 64 29 64 64 0 36-29 64-64 64z m-171-310c0 65 53 118 118 118l105 0c65 0 118-53 118-118 0-17-14-31-31-31l-279 0c-17 0-31 14-31 31z m298 12c-6 36-37 64-75 64l-105 0c-38 0-69-28-74-64z m43 277c-11 0-21-10-21-21 0-12 10-22 21-22l107 0 0-192-43 0c-11 0-21-9-21-21 0-12 10-21 21-21l43 0c24 0 43 19 43 42l0 192c0 24-19 43-43 43z m86-107c0-11-10-21-22-21l-64 0c-11 0-21 10-21 21 0 12 10 22 21 22l64 0c12 0 22-10 22-22z m-43-85c12 0 21 10 21 21 0 12-9 22-21 22l-43 0c-11 0-21-10-21-22 0-11 10-21 21-21z"/>
<glyph glyph-name="trans" unicode="&#115;" d="M277 213c12 0 22 10 22 22 0 11-10 21-22 21l-42 0c-12 0-22-10-22-21 0-12 10-22 22-22z m-256 171c0 35 29 64 64 64l342 0c35 0 64-29 64-64l0-85c0-36-29-64-64-64l-43 0 0-150c0-8-4-15-11-18-7-4-16-4-22 1l-50 33-30-31c-8-8-22-8-30 0l-30 31-50-33c-6-5-15-5-22-1-7 3-11 10-11 18l0 150-43 0c-35 0-64 28-64 64z m363-64l0-43 43 0c11 0 21 10 21 22l0 85c0 12-10 21-21 21l-342 0c-11 0-21-9-21-21l0-85c0-12 10-22 21-22l43 0 0 43c-12 0-21 10-21 21 0 12 9 22 21 22l256 0c12 0 21-10 21-22 0-11-9-21-21-21z m-43 0l-170 0 0-195 31 21c8 5 19 4 26-3l28-27 28 27c7 7 18 8 27 3l30-21z"/>
<glyph glyph-name="usage" unicode="&#116;" d="M256 491c-130 0-235-105-235-235 0-130 105-235 233-235 0 0 2 0 2 0 64 0 122 26 162 66 2 3 4 5 7 7 40 43 64 100 64 162 2 130-103 235-233 235z m85-235c0-47-38-85-85-85-47 0-85 38-85 85 0 47 38 85 85 85 47 0 85-38 85-85z m-19-179c-21-9-43-11-66-13 0 0 0 0-2 0-9 0-17 0-28 2-32 4-62 17-87 36-26 20-47 45-60 75-13 30-19 62-17 94 2 32 13 64 30 90 17 27 40 49 70 64 21 12 47 19 71 21l0-64c-15-2-28-7-41-13-19-11-34-26-47-43-13-17-15-40-17-61-2-22 2-43 11-62 8-20 23-37 40-49 17-13 36-22 58-24 21-2 42 0 64 7 13 4 25 12 36 21l49-43c-19-17-40-30-64-38z m92 70l-49 43c13 19 19 43 19 66 0 64-47 115-107 126l0 64c96-11 171-92 171-190 0-41-13-79-34-109z"/>
<glyph glyph-name="version" unicode="&#117;" d="M277 341c0-11-9-21-21-21-12 0-21 10-21 21 0 12 9 22 21 22 12 0 21-10 21-22z m86 0c0-11-10-21-22-21-11 0-21 10-21 21 0 12 10 22 21 22 12 0 22-10 22-22z m21 107l-256 0c-36 0-64-28-64-64l0-256c0-36 28-64 64-64l256 0c36 0 64 28 64 64l0 256c0 36-28 64-64 64z m21-320c0-13-8-21-21-21l-256 0c-13 0-21 8-21 21l0 107 298 0z m0 149l-298 0 0 107c0 13 8 21 21 21l256 0c13 0 21-8 21-21z"/>
</font>
</defs>
</svg>
